<?xml version="1.0" encoding="UTF-8"?>
<svg xmlns="http://www.w3.org/2000/svg" xmlns:xlink="http://www.w3.org/1999/xlink" viewBox="0 0 15.25 15" width="64" height="63" fill="none">
    <defs>
        <polygon id="path-1" points="0 0.0941227831 0 3.45589086 4.44285948 3.45589086 4.44285948 0.0941227831 6.50817129e-21 0.0941227831"></polygon>
    </defs>
    <g id="Page-1" stroke="none" stroke-width="1" fill="none" fill-rule="evenodd">
        <g>
            <g id="Group-3" transform="translate(0.000000, 0.331207)">
                <mask id="mask-2" fill="white">
                    <use xlink:href="#path-1"></use>
                </mask>
                <g id="Clip-2"></g>
                <path d="M3.21614188,0.349839018 L2.22449113,2.22893315 L2.19879945,2.22893315 L1.2280382,0.349839018 C1.14448022,0.196649386 0.997773533,0.0941227831 0.805446112,0.0941227831 L-0.00012005457,0.0941227831 L-0.00012005457,0.27924693 C0.115132333,0.27924693 0.205653479,0.317664393 0.205653479,0.438919509 L0.205653479,3.08492224 C0.205653479,3.20617735 0.115132333,3.27028649 -0.00012005457,3.27028649 L-0.00012005457,3.45589086 L1.13895771,3.45589086 L1.13895771,3.27028649 C0.946390177,3.27028649 0.857309686,3.20617735 0.857309686,3.08492224 L0.857309686,1.16092769 L0.914215553,1.16092769 L2.13541064,3.45589086 L2.23169441,3.45589086 L3.47786085,1.16813097 L3.53524693,1.16813097 L3.53524693,3.08492224 C3.53524693,3.20617735 3.44568622,3.27028649 3.26056207,3.27028649 L3.26056207,3.45589086 L4.44285948,3.45589086 L4.44285948,3.27028649 C4.3278472,3.27028649 4.23828649,3.20617735 4.23828649,3.08492224 L4.23828649,0.438919509 C4.23828649,0.317664393 4.3278472,0.27924693 4.44285948,0.27924693 L4.44285948,0.0941227831 L3.63801364,0.0941227831 C3.44568622,0.0941227831 3.29849932,0.196649386 3.21614188,0.349839018" id="Fill-1" fill="#1D1C1B" mask="url(#mask-2)"></path>
            </g>
            <path d="M9.59404093,3.1867045 C9.59404093,3.63474816 9.2307558,3.99851351 8.78391269,3.99851351 L6.62076944,3.99851351 C6.17296589,3.99851351 5.80968076,3.63474816 5.80968076,3.1867045 L5.80968076,1.02428158 C5.80968076,0.576718145 6.17296589,0.213433015 6.62076944,0.213433015 L8.78391269,0.213433015 C9.2307558,0.213433015 9.59404093,0.576718145 9.59404093,1.02428158 L9.59404093,3.1867045 Z" id="Fill-4" fill="#1D1C1B"></path>
            <path d="M9.59404093,8.3340442 C9.59404093,8.78184775 9.2307558,9.14393233 8.78391269,9.14393233 L6.62076944,9.14393233 C6.17296589,9.14393233 5.80968076,8.78184775 5.80968076,8.3340442 L5.80968076,6.17090095 C5.80968076,5.72309741 6.17296589,5.35957217 6.62076944,5.35957217 L8.78391269,5.35957217 C9.2307558,5.35957217 9.59404093,5.72309741 9.59404093,6.17090095 L9.59404093,8.3340442 Z" id="Fill-6" fill="#1D1C1B"></path>
            <path d="M14.9500835,3.1867045 C14.9500835,3.63474816 14.5867984,3.99851351 14.1387547,3.99851351 L11.976812,3.99851351 C11.5282881,3.99851351 11.1657233,3.63474816 11.1657233,3.1867045 L11.1657233,1.02428158 C11.1657233,0.576718145 11.5282881,0.213433015 11.976812,0.213433015 L14.1387547,0.213433015 C14.5867984,0.213433015 14.9500835,0.576718145 14.9500835,1.02428158 L14.9500835,3.1867045 Z" id="Fill-8" fill="#1D1C1B"></path>
            <path d="M4.23965512,8.3340442 C4.23965512,8.78184775 3.8768502,9.14393233 3.42832633,9.14393233 L1.26590341,9.14393233 C0.818339973,9.14393233 0.455535061,8.78184775 0.455535061,8.3340442 L0.455535061,6.17090095 C0.455535061,5.72309741 0.818339973,5.35957217 1.26590341,5.35957217 L3.42832633,5.35957217 C3.8768502,5.35957217 4.23965512,5.72309741 4.23965512,6.17090095 L4.23965512,8.3340442 Z" id="Fill-10" fill="#1D1C1B"></path>
            <path d="M14.9500835,8.3340442 C14.9500835,8.78184775 14.5867984,9.14393233 14.1387547,9.14393233 L11.976812,9.14393233 C11.5282881,9.14393233 11.1657233,8.78184775 11.1657233,8.3340442 L11.1657233,6.17090095 C11.1657233,5.72309741 11.5282881,5.35957217 11.976812,5.35957217 L14.1387547,5.35957217 C14.5867984,5.35957217 14.9500835,5.72309741 14.9500835,6.17090095 L14.9500835,8.3340442 Z" id="Fill-12" fill="#1D1C1B"></path>
            <path d="M14.9500835,13.4832808 C14.9500835,13.9296437 14.5867984,14.2931689 14.1387547,14.2931689 L11.976812,14.2931689 C11.5282881,14.2931689 11.1657233,13.9296437 11.1657233,13.4832808 L11.1657233,11.3184568 C11.1657233,10.8716136 11.5282881,10.5085686 11.976812,10.5085686 L14.1387547,10.5085686 C14.5867984,10.5085686 14.9500835,10.8716136 14.9500835,11.3184568 L14.9500835,13.4832808 Z" id="Fill-14" fill="#1D1C1B"></path>
            <path d="M9.59358472,13.4832808 C9.59358472,13.9296437 9.22981937,14.2931689 8.78225593,14.2931689 L6.61983302,14.2931689 C6.17178936,14.2931689 5.80874434,13.9296437 5.80874434,13.4832808 L5.80874434,11.3184568 C5.80874434,10.8716136 6.17178936,10.5085686 6.61983302,10.5085686 L8.78225593,10.5085686 C9.22981937,10.5085686 9.59358472,10.8716136 9.59358472,11.3184568 L9.59358472,13.4832808 Z" id="Fill-16" fill="#1D1C1B"></path>
            <path d="M4.23965512,13.4832808 C4.23965512,13.9296437 3.8768502,14.2931689 3.42832633,14.2931689 L1.26590341,14.2931689 C0.818339973,14.2931689 0.455535061,13.9296437 0.455535061,13.4832808 L0.455535061,11.3184568 C0.455535061,10.8716136 0.818339973,10.5085686 1.26590341,10.5085686 L3.42832633,10.5085686 C3.8768502,10.5085686 4.23965512,10.8716136 4.23965512,11.3184568 L4.23965512,13.4832808 Z" id="Fill-18" fill="#1D1C1B"></path>
        </g>
    </g>
</svg>
